<svg width="80" height="83" viewBox="0 0 80 83" fill="none" xmlns="http://www.w3.org/2000/svg">
<path d="M63.5897 8.20513H54.3589V3.07692C54.3589 1.39487 52.9641 0 51.282 0C49.5999 0 48.2051 1.39487 48.2051 3.07692V78.9744C48.2051 80.6564 49.5999 82.0513 51.282 82.0513C52.9641 82.0513 54.3589 80.6564 54.3589 78.9744V73.8462H63.5897C72.6564 73.8462 79.9999 66.5026 79.9999 57.4359V24.6154C79.9999 15.5487 72.6564 8.20513 63.5897 8.20513Z" fill="#FF0300"/>
<path d="M16.4103 8.20514C7.34359 8.20514 0 15.5487 0 24.6154V57.4359C0 66.5026 7.34359 73.8462 16.4103 73.8462H36.9231C39.1795 73.8462 41.0256 72 41.0256 69.7436V12.3077C41.0256 10.0513 39.1795 8.20514 36.9231 8.20514H16.4103ZM17.1077 42.5846C16.9026 43.0769 16.6154 43.5282 16.2462 43.9385C15.8359 44.3077 15.3846 44.5949 14.8923 44.8C14.4 45.0051 13.8667 45.1282 13.3333 45.1282C12.8 45.1282 12.2667 45.0051 11.7744 44.8C11.2821 44.5949 10.8308 44.3077 10.4205 43.9385C10.0513 43.5282 9.7641 43.0769 9.51795 42.5846C9.31282 42.0923 9.23077 41.559 9.23077 41.0257C9.23077 39.959 9.68205 38.8923 10.4205 38.1128L11.0359 37.6205C11.2821 37.4564 11.5282 37.3333 11.7744 37.2513C12.0205 37.1282 12.2667 37.0462 12.5128 37.0051C13.9077 36.718 15.3026 37.1692 16.2462 38.1128C16.9846 38.8923 17.4359 39.959 17.4359 41.0257C17.4359 41.559 17.3128 42.0923 17.1077 42.5846ZM31.4667 42.5846C31.2615 43.0769 30.9744 43.5282 30.6051 43.9385C30.1949 44.3077 29.7436 44.5949 29.2513 44.8C28.759 45.0051 28.2256 45.1282 27.6923 45.1282C27.159 45.1282 26.6256 45.0051 26.1333 44.8C25.641 44.5949 25.1897 44.3077 24.7795 43.9385C24 43.159 23.5897 42.1333 23.5897 41.0257C23.5897 40.4923 23.7128 39.959 23.9179 39.4667C24.1231 38.9333 24.4103 38.5231 24.7795 38.1128C26.2974 36.5949 29.0462 36.5949 30.6051 38.1128C31.3436 38.8923 31.7949 39.959 31.7949 41.0257C31.7949 41.559 31.6718 42.0923 31.4667 42.5846Z" fill="#FF0300"/>
</svg>
