<svg width="80" height="70" viewBox="0 0 80 70" fill="none" xmlns="http://www.w3.org/2000/svg">
<path d="M70 20C75.5228 20 80 15.5228 80 10C80 4.47716 75.5228 0 70 0C64.4772 0 60 4.47716 60 10C60 15.5228 64.4772 20 70 20Z" fill="#FF0300"/>
<path d="M70 20C75.5228 20 80 15.5228 80 10C80 4.47716 75.5228 0 70 0C64.4772 0 60 4.47716 60 10C60 15.5228 64.4772 20 70 20Z" fill="#FF0300"/>
<path d="M74.88 25.24C72.08 26.12 69 26.28 65.8 25.48C60.44 24.08 56.08 19.8 54.6 14.44C53.88 11.84 53.84 9.28 54.28 6.96C54.8 4.4 53 2 50.44 2H20C8 2 0 8 0 22V50C0 64 8 70 20 70H60C72 70 80 64 80 50V29.04C80 26.4 77.44 24.4 74.88 25.24ZM54.08 32.6L49.36 36.36C46.72 38.48 43.36 39.52 40 39.52C36.64 39.52 33.24 38.48 30.64 36.36L18.12 26.36C16.84 25.32 16.64 23.4 17.64 22.12C18.68 20.84 20.56 20.6 21.84 21.64L34.36 31.64C37.4 34.08 42.56 34.08 45.6 31.64L50.32 27.88C51.6 26.84 53.52 27.04 54.52 28.36C55.56 29.64 55.36 31.56 54.08 32.6Z" fill="#FF0300"/>
</svg>
